# xmcd
#
# Track frame offsets:
# 182
# 10762
# 26140
# 44450
# 66105
# 81532
# 109335
# 130985
# 156175
# 180802
# 198617
# 225437
# 236897
# 259652
# 284095
#
# Disc length: 4080 seconds
#
#
# Revision: 3
# Processed by: cddbd v1.5.1PL0 Copyright (c) Steve Scherf et al.
# Submitted via: FreeRIP 2.90 
#
DISCID=d50fee0f
DTITLE=Goodie Mob - Still Standing
DYEAR=1998
DGENRE=Hip-Hop
TTITLE0=The Expierence
TTITLE1=Black Ice (feat. OutKast)
TTITLE2=Fly Away
TTITLE3=The Damn (feat. Cool Breeze)
TTITLE4=The Don't Dance No Mo' (feat. Lil' Will)
TTITLE5=Beautiful Skin
TTITLE6=Gutta Butta
TTITLE7=Ghetto-ology (feat. Chiefton)
TTITLE8=Distant Wilderness
TTITLE9=Greeny Green (feat. Witchdoctor)
TTITLE10=I Refuse Limitation (feat. Backbone)
TTITLE11=See You When I See You
TTITLE12=Inshallah
TTITLE13=Just About Over
TTITLE14=Still Standing
EXTD=
EXTT0=d50fee0f
EXTT1=
EXTT2=
EXTT3=
EXTT4=
EXTT5=
EXTT6=
EXTT7=
EXTT8=
EXTT9=
EXTT10=
EXTT11=
EXTT12=
EXTT13=
EXTT14=
PLAYORDER=
